<?xml version="1.0" standalone="no"?>
<!DOCTYPE svg PUBLIC "-//W3C//DTD SVG 20010904//EN"
 "http://www.w3.org/TR/2001/REC-SVG-20010904/DTD/svg10.dtd">
<svg version="1.0" xmlns="http://www.w3.org/2000/svg"
 width="195.000000pt" height="195.000000pt" viewBox="0 0 195.000000 195.000000"
 preserveAspectRatio="xMidYMid meet">
<metadata>
Created by potrace 1.14, written by Peter Selinger 2001-2017
</metadata>
<g transform="translate(0.000000,195.000000) scale(0.100000,-0.100000)"
fill="#000000" stroke="none">
<path d="M815 1742 c-82 -59 -166 -119 -185 -132 -19 -14 -37 -28 -40 -31 -6
-7 -208 -155 -244 -179 -26 -17 -62 -43 -111 -80 -18 -14 -67 -50 -109 -80
-42 -30 -76 -57 -76 -60 0 -9 81 -262 101 -315 10 -27 20 -59 22 -70 2 -11 9
-30 15 -42 7 -13 11 -23 8 -23 -3 0 2 -16 10 -35 8 -19 11 -35 8 -35 -4 0 -2
-6 3 -12 5 -7 20 -47 32 -88 13 -41 26 -82 29 -90 3 -8 6 -21 8 -28 1 -8 6
-21 10 -30 4 -9 8 -21 10 -27 1 -5 22 -71 47 -145 l44 -135 571 -3 571 -2 103
312 c56 172 103 316 104 321 1 4 3 9 4 12 1 3 3 8 4 13 1 4 25 79 54 168 29
89 52 166 52 172 0 7 4 12 8 12 4 0 8 8 9 18 1 9 4 26 7 37 6 16 -6 30 -63 73
-39 28 -75 52 -80 52 -5 0 -11 4 -13 8 -1 5 -32 30 -68 55 -36 26 -74 53 -85
61 -174 125 -291 212 -293 218 -2 4 -8 8 -13 8 -5 0 -28 15 -52 33 -24 17 -56
41 -71 52 -16 11 -33 25 -40 30 -6 6 -31 24 -56 40 -25 17 -51 36 -58 43 -7 6
-16 12 -20 12 -4 0 -74 -49 -157 -108z m223 21 c79 -56 87 -63 113 -85 10 -10
19 -16 19 -13 0 5 79 -51 125 -88 5 -4 42 -30 80 -58 39 -27 77 -55 85 -62 8
-7 40 -30 70 -51 30 -22 57 -43 58 -48 2 -4 9 -8 15 -8 7 0 27 -14 46 -30 18
-17 37 -30 40 -30 4 0 16 -8 27 -17 10 -10 37 -30 59 -46 82 -57 78 -41 40
-163 -18 -60 -43 -136 -55 -169 -11 -33 -21 -62 -22 -65 -1 -8 -4 -16 -56
-175 -27 -82 -75 -232 -108 -332 l-58 -183 -36 -1 c-19 0 -264 -2 -545 -2
l-509 -2 -27 80 c-15 44 -68 208 -118 365 -51 157 -99 301 -106 321 -8 20 -11
39 -8 43 4 3 2 6 -4 6 -5 0 -10 6 -10 13 0 6 -15 56 -33 110 -17 54 -30 100
-28 101 1 1 21 16 43 32 55 40 54 39 112 84 29 22 56 40 60 40 4 0 22 14 40
30 18 17 35 30 39 30 3 0 25 15 48 32 56 45 47 38 186 138 69 50 134 97 145
106 11 9 38 28 60 42 22 15 42 30 45 33 6 7 93 68 98 69 2 0 33 -21 70 -47z"/>
<path d="M940 1753 c-14 -10 -32 -23 -40 -30 -12 -10 -128 -94 -423 -308 -15
-11 -59 -44 -97 -72 -39 -29 -74 -53 -79 -53 -5 0 -11 -4 -13 -8 -1 -4 -38
-34 -80 -65 l-77 -57 14 -33 c8 -19 11 -37 8 -41 -4 -3 -1 -6 5 -6 7 0 12 -7
12 -16 0 -15 71 -247 87 -284 3 -8 7 -19 8 -25 2 -5 34 -107 73 -225 39 -118
81 -245 92 -282 l22 -68 127 0 128 0 -3 68 c-1 37 -5 81 -8 97 -4 29 -16 164
-22 255 -1 25 -5 74 -8 110 -4 36 -9 97 -11 135 -3 39 -8 99 -11 135 -3 36 -6
84 -7 107 -2 51 2 49 -110 39 -95 -9 -95 -9 -93 -68 1 -48 0 -51 -35 -69 -20
-10 -38 -17 -40 -15 -2 2 -24 6 -49 10 -77 10 -83 12 -86 32 -1 10 -4 40 -8
66 -5 46 -5 47 27 57 18 5 82 20 142 32 133 26 117 23 190 38 33 8 65 14 70
16 22 4 81 16 105 19 14 3 25 5 25 6 0 1 11 3 25 6 22 4 47 9 150 31 14 3 36
7 50 8 14 2 25 4 25 5 0 2 9 4 20 6 11 1 74 14 140 28 66 13 132 27 148 30 15
3 38 8 52 11 18 4 40 -6 85 -39 59 -44 61 -56 9 -56 -23 0 -22 5 -24 -102 -1
-48 -4 -91 -8 -95 -8 -8 -8 -10 -11 92 -4 103 -2 97 -33 91 -16 -3 -43 -8 -60
-11 -18 -3 -48 -8 -65 -11 -18 -3 -44 -7 -58 -9 -24 -3 -61 -9 -125 -20 -16
-3 -43 -8 -60 -10 -16 -3 -39 -6 -50 -9 -11 -2 -59 -10 -107 -17 -62 -9 -88
-17 -91 -28 -2 -9 -5 -90 -6 -181 -1 -91 -4 -226 -6 -300 -3 -138 -6 -399 -5
-457 l0 -33 358 0 358 0 98 303 c54 166 109 332 122 370 13 37 21 67 18 67 -4
0 -2 6 3 13 6 6 14 26 18 42 5 17 9 35 11 40 1 6 12 37 23 69 12 33 21 65 21
72 0 7 -82 72 -182 145 -101 73 -186 138 -190 144 -5 6 -8 6 -8 0 0 -6 -3 -6
-8 1 -4 6 -34 30 -67 55 -33 24 -61 47 -63 52 -2 4 -8 7 -13 7 -9 0 -75 47
-169 118 -36 27 -129 92 -133 92 -1 0 -14 -8 -27 -17z m-37 -659 c11 -11 -4
-33 -19 -27 -8 3 -14 -1 -15 -8 -7 -86 -5 -100 11 -109 10 -5 20 -6 24 -3 3 3
6 -4 6 -16 0 -19 -4 -22 -31 -17 -17 2 -33 7 -36 10 -13 12 -9 137 4 156 14
19 43 27 56 14z m87 -47 c0 -4 0 -11 0 -17 0 -5 -6 -10 -13 -10 -9 0 -12 -16
-11 -55 1 -38 -2 -55 -10 -52 -6 2 -12 25 -13 50 -1 26 -7 56 -12 66 -6 10 -8
21 -4 24 8 9 63 4 63 -6z m78 1 c7 -7 12 -27 12 -45 0 -18 5 -33 10 -33 6 0 9
15 7 35 -3 21 1 39 9 46 11 9 14 8 15 -2 3 -34 5 -39 14 -39 6 0 11 11 13 25
4 26 17 34 24 13 3 -7 4 -37 4 -65 -2 -98 30 -48 33 52 1 16 9 21 31 23 27 2
30 0 31 -30 1 -18 1 -42 1 -53 -1 -11 3 -32 8 -46 4 -14 4 -32 -1 -40 -7 -11
-11 -10 -23 6 -9 11 -16 16 -16 10 0 -5 -5 -3 -10 5 -8 13 -11 11 -16 -7 -4
-13 -13 -23 -21 -23 -10 0 -14 7 -10 20 4 15 0 19 -16 17 -19 -2 -21 2 -19 33
3 29 1 33 -10 22 -13 -13 -14 -17 -17 -47 -2 -26 -21 -17 -21 10 0 14 -5 25
-10 25 -6 0 -10 -6 -9 -12 4 -33 -1 -39 -33 -34 -49 8 -59 38 -27 84 9 12 19
19 22 15 4 -3 7 -1 7 5 0 11 -13 16 -32 13 -5 0 -8 6 -8 14 0 18 41 20 58 3z
m289 0 c6 -7 10 -40 9 -73 -1 -57 -2 -60 -26 -61 -14 -1 -30 0 -36 3 -9 3 -11
37 -5 75 0 4 10 10 21 13 11 3 20 10 20 15 0 4 -9 10 -20 13 -11 3 -20 10 -20
16 0 15 45 14 57 -1z m104 -6 c8 -103 0 -137 -32 -130 -9 2 -14 -5 -13 -19 1
-13 -4 -23 -12 -23 -16 0 -16 2 -16 85 1 109 -2 103 37 103 25 0 35 -5 36 -16z
m89 2 c0 -7 -5 -14 -12 -16 -8 -3 -12 -25 -13 -56 0 -69 -19 -67 -23 3 -2 37
-7 55 -16 55 -7 0 -13 6 -13 13 0 9 13 14 39 14 24 0 38 -5 38 -13z m-96 -216
c-2 -15 0 -27 4 -27 4 1 20 1 36 0 l28 -1 -5 -57 c-5 -55 -23 -83 -51 -83 -12
0 -58 -91 -51 -99 3 -2 18 -4 35 -3 26 1 28 -1 18 -18 -14 -21 -47 -18 -65 7
-17 23 -17 25 12 66 l24 36 -28 17 c-18 10 -27 24 -26 38 1 11 -2 33 -6 48 -8
29 2 43 36 50 15 2 20 12 22 38 2 52 4 57 12 35 4 -11 6 -32 5 -47z m-545 -33
c2 -13 -1 -16 -12 -12 -22 8 -33 -12 -31 -58 2 -63 3 -65 23 -65 29 0 35 -17
11 -30 -24 -13 -55 1 -62 27 -3 16 -3 59 1 123 1 20 35 42 56 36 6 -1 12 -11
14 -21z m348 0 c-2 -5 -12 -10 -22 -10 -10 0 -20 5 -22 10 -1 6 8 10 22 10 14
0 24 -4 22 -10z m-176 -44 c8 -93 -6 -136 -39 -124 -9 4 -13 2 -9 -4 4 -5 0
-19 -8 -29 -13 -18 -14 -18 -19 6 -3 14 -5 53 -3 86 2 57 1 61 -17 54 -15 -5
-20 -17 -20 -48 -1 -23 2 -42 7 -42 4 0 2 -6 -5 -14 -20 -22 -28 -9 -25 46 1
33 -2 52 -10 55 -7 3 -13 11 -13 19 0 9 19 14 68 16 80 4 92 1 93 -21z m83 13
c24 -23 21 -106 -3 -128 -16 -15 -22 -15 -40 -4 -12 7 -21 17 -22 23 -7 67 0
101 25 117 16 11 23 10 40 -8z m57 -26 l1 -33 14 33 c8 17 20 32 27 32 11 0
13 -38 8 -132 -2 -33 -20 -18 -24 20 l-3 37 -8 -32 c-5 -18 -12 -33 -17 -33
-5 0 -12 -1 -16 -2 -8 -3 -13 121 -6 135 10 18 23 4 24 -25z"/>
<path d="M1228 983 c-6 -42 -4 -48 11 -38 13 8 15 75 2 75 -5 0 -11 -17 -13
-37z"/>
<path d="M1035 980 c-3 -5 -1 -18 4 -27 9 -16 10 -14 11 10 0 28 -5 34 -15 17z"/>
<path d="M1324 969 c-3 -6 -1 -16 5 -22 8 -8 11 -5 11 11 0 24 -5 28 -16 11z"/>
<path d="M1416 1013 c-7 -27 -2 -63 8 -63 12 0 16 69 5 75 -4 3 -10 -3 -13
-12z"/>
<path d="M1033 700 c0 -22 4 -40 9 -40 9 0 9 0 12 48 2 20 -2 32 -10 32 -7 0
-11 -15 -11 -40z"/>
<path d="M1129 735 c-4 -55 0 -85 11 -85 6 0 10 23 10 50 0 28 -4 50 -10 50
-5 0 -10 -7 -11 -15z"/>
</g>
</svg>
